<svg width="188" height="220" viewBox="0 0 188 220" fill="none" xmlns="http://www.w3.org/2000/svg">
<path d="M20.76 175.92V181.4H9.32V187.32H17.88V192.64H9.32V204H2.48V175.92H20.76ZM46.395 181.68V204H39.555V200.96C38.8617 201.947 37.915 202.747 36.715 203.36C35.5417 203.947 34.235 204.24 32.795 204.24C31.0883 204.24 29.5817 203.867 28.275 203.12C26.9683 202.347 25.955 201.24 25.235 199.8C24.515 198.36 24.155 196.667 24.155 194.72V181.68H30.955V193.8C30.955 195.293 31.3417 196.453 32.115 197.28C32.8883 198.107 33.9283 198.52 35.235 198.52C36.5683 198.52 37.6217 198.107 38.395 197.28C39.1683 196.453 39.555 195.293 39.555 193.8V181.68H46.395ZM63.7481 198.2V204H60.2681C57.7881 204 55.8548 203.4 54.4681 202.2C53.0815 200.973 52.3881 198.987 52.3881 196.24V187.36H49.6681V181.68H52.3881V176.24H59.2281V181.68H63.7081V187.36H59.2281V196.32C59.2281 196.987 59.3881 197.467 59.7081 197.76C60.0281 198.053 60.5615 198.2 61.3081 198.2H63.7481ZM77.7181 204.32C75.5315 204.32 73.5581 203.853 71.7981 202.92C70.0648 201.987 68.6915 200.653 67.6781 198.92C66.6915 197.187 66.1981 195.16 66.1981 192.84C66.1981 190.547 66.7048 188.533 67.7181 186.8C68.7315 185.04 70.1181 183.693 71.8781 182.76C73.6381 181.827 75.6115 181.36 77.7981 181.36C79.9848 181.36 81.9581 181.827 83.7181 182.76C85.4781 183.693 86.8648 185.04 87.8781 186.8C88.8915 188.533 89.3981 190.547 89.3981 192.84C89.3981 195.133 88.8781 197.16 87.8381 198.92C86.8248 200.653 85.4248 201.987 83.6381 202.92C81.8781 203.853 79.9048 204.32 77.7181 204.32ZM77.7181 198.4C79.0248 198.4 80.1315 197.92 81.0381 196.96C81.9715 196 82.4381 194.627 82.4381 192.84C82.4381 191.053 81.9848 189.68 81.0781 188.72C80.1981 187.76 79.1048 187.28 77.7981 187.28C76.4648 187.28 75.3581 187.76 74.4781 188.72C73.5981 189.653 73.1581 191.027 73.1581 192.84C73.1581 194.627 73.5848 196 74.4381 196.96C75.3181 197.92 76.4115 198.4 77.7181 198.4Z" fill="black"/>
<path d="M99.8669 184.84C100.507 183.8 101.427 182.96 102.627 182.32C103.827 181.68 105.2 181.36 106.747 181.36C108.587 181.36 110.254 181.827 111.747 182.76C113.24 183.693 114.414 185.027 115.267 186.76C116.147 188.493 116.587 190.507 116.587 192.8C116.587 195.093 116.147 197.12 115.267 198.88C114.414 200.613 113.24 201.96 111.747 202.92C110.254 203.853 108.587 204.32 106.747 204.32C105.174 204.32 103.8 204.013 102.627 203.4C101.454 202.76 100.534 201.92 99.8669 200.88V204H93.0269V174.4H99.8669V184.84ZM109.627 192.8C109.627 191.093 109.147 189.76 108.187 188.8C107.254 187.813 106.094 187.32 104.707 187.32C103.347 187.32 102.187 187.813 101.227 188.8C100.294 189.787 99.8269 191.133 99.8269 192.84C99.8269 194.547 100.294 195.893 101.227 196.88C102.187 197.867 103.347 198.36 104.707 198.36C106.067 198.36 107.227 197.867 108.187 196.88C109.147 195.867 109.627 194.507 109.627 192.8ZM130.335 204.32C128.149 204.32 126.175 203.853 124.415 202.92C122.682 201.987 121.309 200.653 120.295 198.92C119.309 197.187 118.815 195.16 118.815 192.84C118.815 190.547 119.322 188.533 120.335 186.8C121.349 185.04 122.735 183.693 124.495 182.76C126.255 181.827 128.229 181.36 130.415 181.36C132.602 181.36 134.575 181.827 136.335 182.76C138.095 183.693 139.482 185.04 140.495 186.8C141.509 188.533 142.015 190.547 142.015 192.84C142.015 195.133 141.495 197.16 140.455 198.92C139.442 200.653 138.042 201.987 136.255 202.92C134.495 203.853 132.522 204.32 130.335 204.32ZM130.335 198.4C131.642 198.4 132.749 197.92 133.655 196.96C134.589 196 135.055 194.627 135.055 192.84C135.055 191.053 134.602 189.68 133.695 188.72C132.815 187.76 131.722 187.28 130.415 187.28C129.082 187.28 127.975 187.76 127.095 188.72C126.215 189.653 125.775 191.027 125.775 192.84C125.775 194.627 126.202 196 127.055 196.96C127.935 197.92 129.029 198.4 130.335 198.4ZM152.484 185.4C153.284 184.173 154.284 183.213 155.484 182.52C156.684 181.8 158.017 181.44 159.484 181.44V188.68H157.604C155.897 188.68 154.617 189.053 153.764 189.8C152.911 190.52 152.484 191.8 152.484 193.64V204H145.644V181.68H152.484V185.4ZM184.793 181.68V204H177.953V200.96C177.26 201.947 176.313 202.747 175.113 203.36C173.94 203.947 172.633 204.24 171.193 204.24C169.487 204.24 167.98 203.867 166.673 203.12C165.367 202.347 164.353 201.24 163.633 199.8C162.913 198.36 162.553 196.667 162.553 194.72V181.68H169.353V193.8C169.353 195.293 169.74 196.453 170.513 197.28C171.287 198.107 172.327 198.52 173.633 198.52C174.967 198.52 176.02 198.107 176.793 197.28C177.567 196.453 177.953 195.293 177.953 193.8V181.68H184.793Z" fill="#8E1230"/>
<path d="M138.194 30.8063C132.409 24.9754 125.525 20.35 117.94 17.1981C110.355 14.0461 102.22 12.4301 94.0063 12.4437C85.7908 12.4309 77.6543 14.0472 70.0675 17.199C62.4807 20.3509 55.5942 24.9758 49.8063 30.8063C25.4375 55.1688 25.4375 94.825 49.8063 119.194C55.5943 125.026 62.4817 129.652 70.0698 132.804C77.6579 135.956 85.7958 137.571 94.0125 137.556C102.226 137.571 110.36 135.956 117.945 132.805C125.53 129.654 132.415 125.03 138.2 119.2C162.569 94.8375 162.569 55.1813 138.194 30.8063ZM95.1313 25H92.8875C93.2687 24.9938 93.6313 24.9438 94.0125 24.9438C94.3938 24.9438 94.75 24.9938 95.1313 25ZM133.019 106.25H119L111.138 121.975C105.653 124.001 99.8534 125.044 94.0063 125.056C88.1483 125.046 82.3382 124 76.8438 121.969L69 106.313H55.0313C49.8777 99.9055 46.3926 92.321 44.8875 84.2375L56.5 68.75L48.9 53.5438C51.3251 48.3849 54.6212 43.6828 58.6438 39.6438C64.2737 33.9941 71.1743 29.7744 78.7688 27.3375L94 37.5L109.238 27.3438C116.83 29.7824 123.73 33.9995 129.363 39.6438C133.381 43.6779 136.675 48.3736 139.1 53.525L131.5 68.75L143.113 84.2375C141.614 92.295 138.147 99.857 133.019 106.25Z" fill="black"/>
<path d="M72.125 68.75L81.5 93.75H106.5L115.875 68.75L94 53.125L72.125 68.75Z" fill="#8E1230"/>
</svg>
