<svg width="60" height="60" viewBox="0 0 60 60" fill="none" xmlns="http://www.w3.org/2000/svg">
<path d="M30 5C23.3958 5.08422 17.0857 7.74518 12.4155 12.4155C7.74518 17.0857 5.08422 23.3958 5 30C5.03087 33.8473 5.9493 37.6355 7.68378 41.0698C9.41826 44.5041 11.922 47.4917 15 49.8V50H15.25C19.483 53.2437 24.6671 55.0016 30 55.0016C35.3329 55.0016 40.517 53.2437 44.75 50H45V49.8C48.078 47.4917 50.5817 44.5041 52.3162 41.0698C54.0507 37.6355 54.9691 33.8473 55 30C54.9158 23.3958 52.2548 17.0857 47.5845 12.4155C42.9143 7.74518 36.6042 5.08422 30 5ZM20.175 47.325C20.54 45.6536 21.4654 44.1572 22.7977 43.0841C24.13 42.0109 25.7892 41.4255 27.5 41.425H32.5C34.2108 41.4255 35.87 42.0109 37.2023 43.0841C38.5346 44.1572 39.46 45.6536 39.825 47.325C36.8472 49.077 33.455 50.0009 30 50.0009C26.545 50.0009 23.1528 49.077 20.175 47.325ZM44.025 44.1C43.0741 41.8274 41.4728 39.8864 39.4223 38.5209C37.3718 37.1554 34.9636 36.4262 32.5 36.425H27.5C25.0364 36.4262 22.6282 37.1554 20.5777 38.5209C18.5272 39.8864 16.9259 41.8274 15.975 44.1C14.1017 42.2575 12.6098 40.0639 11.5845 37.6445C10.5593 35.2252 10.0209 32.6275 10 30C10.0648 24.7158 12.1928 19.6663 15.9296 15.9296C19.6663 12.1928 24.7158 10.0648 30 10C35.2842 10.0648 40.3337 12.1928 44.0704 15.9296C47.8072 19.6663 49.9352 24.7158 50 30C49.9791 32.6275 49.4407 35.2252 48.4155 37.6445C47.3902 40.0639 45.8983 42.2575 44.025 44.1Z" fill="#9A1032"/>
<path d="M30 15C28.6783 14.9692 27.3642 15.2068 26.137 15.6985C24.9098 16.1901 23.7951 16.9256 22.8603 17.8604C21.9256 18.7952 21.1901 19.9099 20.6984 21.137C20.2068 22.3642 19.9692 23.6784 20 25C19.9692 26.3216 20.2068 27.6358 20.6984 28.863C21.1901 30.0901 21.9256 31.2048 22.8603 32.1396C23.7951 33.0744 24.9098 33.8099 26.137 34.3015C27.3642 34.7932 28.6783 35.0308 30 35C31.3216 35.0308 32.6358 34.7932 33.8629 34.3015C35.0901 33.8099 36.2048 33.0744 37.1396 32.1396C38.0744 31.2048 38.8098 30.0901 39.3015 28.863C39.7931 27.6358 40.0308 26.3216 40 25C40.0308 23.6784 39.7931 22.3642 39.3015 21.137C38.8098 19.9099 38.0744 18.7952 37.1396 17.8604C36.2048 16.9256 35.0901 16.1901 33.8629 15.6985C32.6358 15.2068 31.3216 14.9692 30 15ZM30 30C29.3348 30.0322 28.6703 29.9248 28.0492 29.6849C27.428 29.445 26.8638 29.0779 26.393 28.607C25.9221 28.1361 25.5549 27.572 25.315 26.9508C25.0751 26.3296 24.9678 25.6651 25 25C24.9678 24.3349 25.0751 23.6704 25.315 23.0492C25.5549 22.428 25.9221 21.8639 26.393 21.393C26.8638 20.9221 27.428 20.555 28.0492 20.3151C28.6703 20.0752 29.3348 19.9678 30 20C30.6651 19.9678 31.3296 20.0752 31.9508 20.3151C32.572 20.555 33.1361 20.9221 33.607 21.393C34.0778 21.8639 34.445 22.428 34.6849 23.0492C34.9248 23.6704 35.0321 24.3349 35 25C35.0321 25.6651 34.9248 26.3296 34.6849 26.9508C34.445 27.572 34.0778 28.1361 33.607 28.607C33.1361 29.0779 32.572 29.445 31.9508 29.6849C31.3296 29.9248 30.6651 30.0322 30 30Z" fill="#9A1032"/>
</svg>
